# Blender v2.76 (sub 0) OBJ File: ''
# www.blender.org
mtllib dualshock4_lightbar.mtl
o Lightbar
v 0.018240 0.002694 -0.000226
v 0.018646 -0.000078 -0.000298
v 0.016968 -0.001526 -0.000337
v 0.014334 -0.002232 -0.000355
v 0.016291 0.003611 -0.000201
v 0.002038 -0.005526 -0.000442
v 0.000361 -0.005859 -0.000450
v -0.004728 -0.005526 -0.000442
v -0.001345 -0.005971 -0.000453
v -0.003049 -0.005859 -0.000450
v -0.009663 -0.004204 -0.000407
v -0.017221 0.003611 -0.000201
v -0.019659 -0.001526 -0.000336
v -0.020418 -0.001186 -0.000327
v -0.020642 -0.000981 -0.000322
v -0.021032 -0.000624 -0.000313
v -0.021473 0.001298 -0.000262
v -0.021438 0.000103 -0.000294
v -0.021486 0.001747 -0.000250
v -0.021123 0.002497 -0.000231
v -0.020542 0.003094 -0.000215
v -0.019804 0.003478 -0.000205
v 0.003572 -0.005115 -0.000431
v -0.018982 0.003611 -0.000201
v -0.018409 0.003611 -0.000201
v 0.017113 0.003478 -0.000205
v 0.017851 0.003094 -0.000215
v 0.018432 0.002497 -0.000231
v 0.018795 0.001747 -0.000250
v 0.018881 0.001090 -0.000268
v 0.018904 0.000921 -0.000272
v 0.018747 0.000103 -0.000294
v 0.018341 -0.000624 -0.000313
v 0.017727 -0.001186 -0.000328
vt 0.684900 0.876700
vt 0.675600 0.877800
vt 0.671700 0.869000
vt 0.670600 0.855500
vt 0.688900 0.867100
vt 0.665900 0.792700
vt 0.665700 0.784100
vt 0.669300 0.758600
vt 0.666200 0.775500
vt 0.667400 0.767000
vt 0.676100 0.734200
vt 0.705600 0.698600
vt 0.689900 0.684900
vt 0.691400 0.681100
vt 0.692200 0.680100
vt 0.693500 0.678200
vt 0.700100 0.676600
vt 0.696100 0.676400
vt 0.701600 0.676700
vt 0.703800 0.678700
vt 0.705500 0.681800
vt 0.706400 0.685700
vt 0.666500 0.800500
vt 0.706500 0.689800
vt 0.706200 0.692700
vt 0.688000 0.871200
vt 0.686400 0.874800
vt 0.684100 0.877600
vt 0.681600 0.879100
vt 0.679300 0.879400
vt 0.678700 0.879400
vt 0.676100 0.878400
vt 0.673900 0.876100
vt 0.672400 0.872900
vn 0.000100 0.026400 -0.999700
vn 0.000100 0.026300 -0.999700
vn -0.000100 0.026500 -0.999600
vn -0.000100 0.026400 -0.999700
vn 0.000200 0.026300 -0.999700
vn -0.000000 0.026200 -0.999700
vn -0.000000 0.026300 -0.999700
vn -0.000100 0.026300 -0.999700
vn 0.000000 0.026400 -0.999700
vn 0.000200 0.026100 -0.999700
vn -0.000200 0.026200 -0.999700
usemtl Map.001
s 1
f 1/1/1 2/2/2 3/3/3
f 4/4/4 5/5/5 3/3/3
f 6/6/6 7/7/7 8/8/6
f 9/9/6 10/10/7 7/7/7
f 8/8/6 11/11/7 12/12/7
f 13/13/6 14/14/1 15/15/2
f 15/15/2 16/16/7 17/17/2
f 18/18/8 17/17/2 16/16/7
f 19/19/8 20/20/7 17/17/2
f 21/21/4 22/22/7 17/17/2
f 23/23/9 6/6/6 8/8/6
f 22/22/7 24/24/10 17/17/2
f 25/25/7 12/12/7 13/13/6
f 26/26/7 27/27/7 1/1/1
f 1/1/1 28/28/11 29/29/7
f 30/30/7 31/31/5 32/32/8
f 1/1/1 29/29/7 30/30/7
f 23/23/9 8/8/6 12/12/7
f 20/20/7 21/21/4 17/17/2
f 15/15/2 17/17/2 13/13/6
f 11/11/7 13/13/6 12/12/7
f 7/7/7 10/10/7 8/8/6
f 5/5/5 26/26/7 1/1/1
f 33/33/7 34/34/7 2/2/2
f 32/32/8 2/2/2 30/30/7
f 1/1/1 30/30/7 2/2/2
f 24/24/10 13/13/6 17/17/2
f 13/13/6 24/24/10 25/25/7
f 5/5/5 1/1/1 3/3/3
f 2/2/2 34/34/7 3/3/3
f 23/23/9 12/12/7 5/5/5
f 5/5/5 4/4/4 23/23/9
